<mxfile host="app.diagrams.net" modified="2022-05-18T21:42:14.727Z" agent="5.0 (Macintosh; Intel Mac OS X 10_15_7) AppleWebKit/537.36 (KHTML, like Gecko) Chrome/100.0.4896.88 Safari/537.36" etag="_dNEOTS9sL2z7ZzdOfaq" version="18.0.2" type="github">
  <diagram name="Page-1" id="03018318-947c-dd8e-b7a3-06fadd420f32">
    <mxGraphModel dx="1170" dy="887" grid="1" gridSize="10" guides="1" tooltips="1" connect="1" arrows="1" fold="1" page="1" pageScale="1" pageWidth="1100" pageHeight="850" background="none" math="0" shadow="0">
      <root>
        <mxCell id="0" />
        <mxCell id="1" parent="0" />
        <mxCell id="677b7b8949515195-1" value="" style="whiteSpace=wrap;html=1;rounded=0;shadow=0;labelBackgroundColor=none;strokeColor=#000000;strokeWidth=1;fillColor=none;fontFamily=Verdana;fontSize=12;fontColor=#000000;align=center;comic=1;" parent="1" vertex="1">
          <mxGeometry x="20" y="20" width="1060" height="810" as="geometry" />
        </mxCell>
        <mxCell id="677b7b8949515195-8" value="" style="whiteSpace=wrap;html=1;rounded=0;shadow=0;labelBackgroundColor=none;strokeWidth=1;fillColor=none;fontFamily=Verdana;fontSize=12;align=center;comic=1;" parent="1" vertex="1">
          <mxGeometry x="30" y="160" width="200" height="660" as="geometry" />
        </mxCell>
        <mxCell id="677b7b8949515195-9" value="" style="line;strokeWidth=1;html=1;rounded=0;shadow=0;labelBackgroundColor=none;fillColor=none;fontFamily=Verdana;fontSize=14;fontColor=#000000;align=center;comic=1;" parent="1" vertex="1">
          <mxGeometry x="20" y="60" width="1060" height="90" as="geometry" />
        </mxCell>
        <mxCell id="677b7b8949515195-10" value="" style="whiteSpace=wrap;html=1;rounded=0;shadow=0;labelBackgroundColor=none;strokeWidth=1;fillColor=none;fontFamily=Verdana;fontSize=12;align=center;comic=1;" parent="1" vertex="1">
          <mxGeometry x="30" y="110" width="1040" height="50" as="geometry" />
        </mxCell>
        <mxCell id="677b7b8949515195-16" value="" style="verticalLabelPosition=bottom;shadow=0;dashed=0;align=center;html=1;verticalAlign=top;strokeWidth=1;shape=mxgraph.mockup.graphics.simpleIcon;strokeColor=#999999;rounded=0;labelBackgroundColor=none;fontFamily=Verdana;fontSize=14;fontColor=#000000;comic=1;" parent="1" vertex="1">
          <mxGeometry x="230" y="160" width="850" height="670" as="geometry" />
        </mxCell>
        <mxCell id="677b7b8949515195-27" value="&lt;font style=&quot;font-size: 13px;&quot;&gt;Daycare 1&lt;/font&gt;" style="text;html=1;points=[];align=left;verticalAlign=top;spacingTop=-4;fontSize=14;fontFamily=Verdana" parent="1" vertex="1">
          <mxGeometry x="40" y="170" width="170" height="20" as="geometry" />
        </mxCell>
        <mxCell id="gFLGMSEBJ4K6tD9c_Rj9-1" value="&lt;font style=&quot;font-size: 24px;&quot;&gt;Calendar Page&lt;/font&gt;" style="text;html=1;strokeColor=none;fillColor=none;align=center;verticalAlign=middle;whiteSpace=wrap;rounded=0;" vertex="1" parent="1">
          <mxGeometry x="60" y="50" width="190" height="30" as="geometry" />
        </mxCell>
        <mxCell id="gFLGMSEBJ4K6tD9c_Rj9-2" value="&lt;font style=&quot;font-size: 13px;&quot;&gt;Daycare 2&lt;/font&gt;" style="text;html=1;points=[];align=left;verticalAlign=top;spacingTop=-4;fontSize=14;fontFamily=Verdana" vertex="1" parent="1">
          <mxGeometry x="40" y="200" width="170" height="20" as="geometry" />
        </mxCell>
        <mxCell id="gFLGMSEBJ4K6tD9c_Rj9-3" value="&lt;font style=&quot;font-size: 13px;&quot;&gt;Daycare 3&lt;br&gt;.&lt;br&gt;.&lt;br&gt;.&lt;br&gt;.&lt;br&gt;.&lt;br&gt;.&lt;br&gt;.&lt;br&gt;.&lt;br&gt;.&lt;br&gt;.&lt;br&gt;.&lt;br&gt;.&lt;br&gt;.&lt;br&gt;.&lt;br&gt;.&lt;br&gt;.&lt;br&gt;.&lt;br&gt;.&lt;br&gt;.&lt;br&gt;.&lt;br&gt;.&lt;br&gt;.&lt;br&gt;.&lt;br&gt;.&lt;br&gt;.&lt;br&gt;.&lt;br&gt;.&lt;br&gt;.&lt;br&gt;.&lt;br&gt;.&lt;br&gt;.&lt;br&gt;&lt;br&gt;&lt;/font&gt;" style="text;html=1;points=[];align=left;verticalAlign=top;spacingTop=-4;fontSize=14;fontFamily=Verdana" vertex="1" parent="1">
          <mxGeometry x="40" y="230" width="170" height="560" as="geometry" />
        </mxCell>
        <mxCell id="gFLGMSEBJ4K6tD9c_Rj9-5" value="&lt;font style=&quot;font-size: 13px;&quot;&gt;Daycare 26&lt;/font&gt;" style="text;html=1;points=[];align=left;verticalAlign=top;spacingTop=-4;fontSize=14;fontFamily=Verdana" vertex="1" parent="1">
          <mxGeometry x="40" y="790" width="170" height="20" as="geometry" />
        </mxCell>
        <mxCell id="gFLGMSEBJ4K6tD9c_Rj9-7" value="" style="line;strokeWidth=1;html=1;rounded=0;shadow=0;labelBackgroundColor=none;fillColor=none;fontFamily=Verdana;fontSize=14;fontColor=#000000;align=center;comic=1;rotation=90;" vertex="1" parent="1">
          <mxGeometry x="-222.5" y="412.5" width="715" height="100" as="geometry" />
        </mxCell>
        <mxCell id="gFLGMSEBJ4K6tD9c_Rj9-9" value="" style="line;strokeWidth=1;html=1;rounded=0;shadow=0;labelBackgroundColor=none;fillColor=none;fontFamily=Verdana;fontSize=14;fontColor=#000000;align=center;comic=1;rotation=90;" vertex="1" parent="1">
          <mxGeometry x="200" y="85" width="52.5" height="100" as="geometry" />
        </mxCell>
        <mxCell id="gFLGMSEBJ4K6tD9c_Rj9-11" value="" style="line;strokeWidth=1;html=1;rounded=0;shadow=0;labelBackgroundColor=none;fillColor=none;fontFamily=Verdana;fontSize=14;fontColor=#000000;align=center;comic=1;rotation=90;" vertex="1" parent="1">
          <mxGeometry x="620" y="85" width="52.5" height="100" as="geometry" />
        </mxCell>
        <mxCell id="gFLGMSEBJ4K6tD9c_Rj9-12" value="" style="line;strokeWidth=1;html=1;rounded=0;shadow=0;labelBackgroundColor=none;fillColor=none;fontFamily=Verdana;fontSize=14;fontColor=#000000;align=center;comic=1;rotation=90;" vertex="1" parent="1">
          <mxGeometry x="400" y="85" width="52.5" height="100" as="geometry" />
        </mxCell>
        <mxCell id="gFLGMSEBJ4K6tD9c_Rj9-13" value="" style="line;strokeWidth=1;html=1;rounded=0;shadow=0;labelBackgroundColor=none;fillColor=none;fontFamily=Verdana;fontSize=14;fontColor=#000000;align=center;comic=1;rotation=90;" vertex="1" parent="1">
          <mxGeometry x="830" y="85" width="52.5" height="100" as="geometry" />
        </mxCell>
        <mxCell id="gFLGMSEBJ4K6tD9c_Rj9-14" value="" style="line;strokeWidth=1;html=1;rounded=0;shadow=0;labelBackgroundColor=none;fillColor=none;fontFamily=Verdana;fontSize=14;fontColor=#000000;align=center;comic=1;rotation=90;" vertex="1" parent="1">
          <mxGeometry x="270" y="85" width="52.5" height="100" as="geometry" />
        </mxCell>
        <mxCell id="gFLGMSEBJ4K6tD9c_Rj9-15" value="" style="line;strokeWidth=1;html=1;rounded=0;shadow=0;labelBackgroundColor=none;fillColor=none;fontFamily=Verdana;fontSize=14;fontColor=#000000;align=center;comic=1;rotation=90;" vertex="1" parent="1">
          <mxGeometry x="330" y="85" width="52.5" height="100" as="geometry" />
        </mxCell>
        <mxCell id="gFLGMSEBJ4K6tD9c_Rj9-16" value="" style="line;strokeWidth=1;html=1;rounded=0;shadow=0;labelBackgroundColor=none;fillColor=none;fontFamily=Verdana;fontSize=14;fontColor=#000000;align=center;comic=1;rotation=90;" vertex="1" parent="1">
          <mxGeometry x="470" y="85" width="52.5" height="100" as="geometry" />
        </mxCell>
        <mxCell id="gFLGMSEBJ4K6tD9c_Rj9-17" value="" style="line;strokeWidth=1;html=1;rounded=0;shadow=0;labelBackgroundColor=none;fillColor=none;fontFamily=Verdana;fontSize=14;fontColor=#000000;align=center;comic=1;rotation=90;" vertex="1" parent="1">
          <mxGeometry x="540" y="85" width="52.5" height="100" as="geometry" />
        </mxCell>
        <mxCell id="gFLGMSEBJ4K6tD9c_Rj9-18" value="" style="line;strokeWidth=1;html=1;rounded=0;shadow=0;labelBackgroundColor=none;fillColor=none;fontFamily=Verdana;fontSize=14;fontColor=#000000;align=center;comic=1;rotation=90;" vertex="1" parent="1">
          <mxGeometry x="690" y="85" width="52.5" height="100" as="geometry" />
        </mxCell>
        <mxCell id="gFLGMSEBJ4K6tD9c_Rj9-19" value="" style="line;strokeWidth=1;html=1;rounded=0;shadow=0;labelBackgroundColor=none;fillColor=none;fontFamily=Verdana;fontSize=14;fontColor=#000000;align=center;comic=1;rotation=90;" vertex="1" parent="1">
          <mxGeometry x="760" y="85" width="52.5" height="100" as="geometry" />
        </mxCell>
        <mxCell id="gFLGMSEBJ4K6tD9c_Rj9-20" value="" style="line;strokeWidth=1;html=1;rounded=0;shadow=0;labelBackgroundColor=none;fillColor=none;fontFamily=Verdana;fontSize=14;fontColor=#000000;align=center;comic=1;rotation=90;" vertex="1" parent="1">
          <mxGeometry x="900" y="85" width="52.5" height="100" as="geometry" />
        </mxCell>
        <mxCell id="gFLGMSEBJ4K6tD9c_Rj9-21" value="" style="line;strokeWidth=1;html=1;rounded=0;shadow=0;labelBackgroundColor=none;fillColor=none;fontFamily=Verdana;fontSize=14;fontColor=#000000;align=center;comic=1;rotation=90;" vertex="1" parent="1">
          <mxGeometry x="970" y="85" width="52.5" height="100" as="geometry" />
        </mxCell>
        <mxCell id="gFLGMSEBJ4K6tD9c_Rj9-22" value="JAN&lt;span style=&quot;color: rgba(0, 0, 0, 0); font-family: monospace; font-size: 0px; text-align: start;&quot;&gt;%3CmxGraphModel%3E%3Croot%3E%3CmxCell%20id%3D%220%22%2F%3E%3CmxCell%20id%3D%221%22%20parent%3D%220%22%2F%3E%3CmxCell%20id%3D%222%22%20value%3D%22%22%20style%3D%22line%3BstrokeWidth%3D1%3Bhtml%3D1%3Brounded%3D0%3Bshadow%3D0%3BlabelBackgroundColor%3Dnone%3BfillColor%3Dnone%3BfontFamily%3DVerdana%3BfontSize%3D14%3BfontColor%3D%23000000%3Balign%3Dcenter%3Bcomic%3D1%3Brotation%3D90%3B%22%20vertex%3D%221%22%20parent%3D%221%22%3E%3CmxGeometry%20x%3D%22620%22%20y%3D%2285%22%20width%3D%2252.5%22%20height%3D%22100%22%20as%3D%22geometry%22%2F%3E%3C%2FmxCell%3E%3C%2Froot%3E%3C%2FmxGraphModel%3E&lt;/span&gt;" style="text;html=1;strokeColor=none;fillColor=none;align=center;verticalAlign=middle;whiteSpace=wrap;rounded=0;fontSize=13;" vertex="1" parent="1">
          <mxGeometry x="230" y="120" width="60" height="30" as="geometry" />
        </mxCell>
        <mxCell id="gFLGMSEBJ4K6tD9c_Rj9-23" value="FEB" style="text;html=1;strokeColor=none;fillColor=none;align=center;verticalAlign=middle;whiteSpace=wrap;rounded=0;fontSize=13;" vertex="1" parent="1">
          <mxGeometry x="290" y="120" width="60" height="30" as="geometry" />
        </mxCell>
        <mxCell id="gFLGMSEBJ4K6tD9c_Rj9-24" value="MAR&lt;span style=&quot;color: rgba(0, 0, 0, 0); font-family: monospace; font-size: 0px; text-align: start;&quot;&gt;%3CmxGraphModel%3E%3Croot%3E%3CmxCell%20id%3D%220%22%2F%3E%3CmxCell%20id%3D%221%22%20parent%3D%220%22%2F%3E%3CmxCell%20id%3D%222%22%20value%3D%22JAN%26lt%3Bspan%20style%3D%26quot%3Bcolor%3A%20rgba(0%2C%200%2C%200%2C%200)%3B%20font-family%3A%20monospace%3B%20font-size%3A%200px%3B%20text-align%3A%20start%3B%26quot%3B%26gt%3B%253CmxGraphModel%253E%253Croot%253E%253CmxCell%2520id%253D%25220%2522%252F%253E%253CmxCell%2520id%253D%25221%2522%2520parent%253D%25220%2522%252F%253E%253CmxCell%2520id%253D%25222%2522%2520value%253D%2522%2522%2520style%253D%2522line%253BstrokeWidth%253D1%253Bhtml%253D1%253Brounded%253D0%253Bshadow%253D0%253BlabelBackgroundColor%253Dnone%253BfillColor%253Dnone%253BfontFamily%253DVerdana%253BfontSize%253D14%253BfontColor%253D%2523000000%253Balign%253Dcenter%253Bcomic%253D1%253Brotation%253D90%253B%2522%2520vertex%253D%25221%2522%2520parent%253D%25221%2522%253E%253CmxGeometry%2520x%253D%2522620%2522%2520y%253D%252285%2522%2520width%253D%252252.5%2522%2520height%253D%2522100%2522%2520as%253D%2522geometry%2522%252F%253E%253C%252FmxCell%253E%253C%252Froot%253E%253C%252FmxGraphModel%253E%26lt%3B%2Fspan%26gt%3B%22%20style%3D%22text%3Bhtml%3D1%3BstrokeColor%3Dnone%3BfillColor%3Dnone%3Balign%3Dcenter%3BverticalAlign%3Dmiddle%3BwhiteSpace%3Dwrap%3Brounded%3D0%3BfontSize%3D13%3B%22%20vertex%3D%221%22%20parent%3D%221%22%3E%3CmxGeometry%20x%3D%22230%22%20y%3D%22120%22%20width%3D%2260%22%20height%3D%2230%22%20as%3D%22geometry%22%2F%3E%3C%2FmxCell%3E%3C%2Froot%3E%3C%2FmxGraphModel%3E&lt;/span&gt;" style="text;html=1;strokeColor=none;fillColor=none;align=center;verticalAlign=middle;whiteSpace=wrap;rounded=0;fontSize=13;" vertex="1" parent="1">
          <mxGeometry x="360" y="120" width="60" height="30" as="geometry" />
        </mxCell>
        <mxCell id="gFLGMSEBJ4K6tD9c_Rj9-25" value="APR" style="text;html=1;strokeColor=none;fillColor=none;align=center;verticalAlign=middle;whiteSpace=wrap;rounded=0;fontSize=13;" vertex="1" parent="1">
          <mxGeometry x="432.5" y="120" width="60" height="30" as="geometry" />
        </mxCell>
        <mxCell id="gFLGMSEBJ4K6tD9c_Rj9-26" value="MAY" style="text;html=1;strokeColor=none;fillColor=none;align=center;verticalAlign=middle;whiteSpace=wrap;rounded=0;fontSize=13;" vertex="1" parent="1">
          <mxGeometry x="500" y="120" width="60" height="30" as="geometry" />
        </mxCell>
        <mxCell id="gFLGMSEBJ4K6tD9c_Rj9-27" value="JUN" style="text;html=1;strokeColor=none;fillColor=none;align=center;verticalAlign=middle;whiteSpace=wrap;rounded=0;fontSize=13;" vertex="1" parent="1">
          <mxGeometry x="580" y="120" width="60" height="30" as="geometry" />
        </mxCell>
        <mxCell id="gFLGMSEBJ4K6tD9c_Rj9-28" value="JUL" style="text;html=1;strokeColor=none;fillColor=none;align=center;verticalAlign=middle;whiteSpace=wrap;rounded=0;fontSize=13;" vertex="1" parent="1">
          <mxGeometry x="650" y="120" width="60" height="30" as="geometry" />
        </mxCell>
        <mxCell id="gFLGMSEBJ4K6tD9c_Rj9-29" value="AUG" style="text;html=1;strokeColor=none;fillColor=none;align=center;verticalAlign=middle;whiteSpace=wrap;rounded=0;fontSize=13;" vertex="1" parent="1">
          <mxGeometry x="720" y="120" width="60" height="30" as="geometry" />
        </mxCell>
        <mxCell id="gFLGMSEBJ4K6tD9c_Rj9-30" value="SEP" style="text;html=1;strokeColor=none;fillColor=none;align=center;verticalAlign=middle;whiteSpace=wrap;rounded=0;fontSize=13;" vertex="1" parent="1">
          <mxGeometry x="790" y="120" width="60" height="30" as="geometry" />
        </mxCell>
        <mxCell id="gFLGMSEBJ4K6tD9c_Rj9-31" value="OCT" style="text;html=1;strokeColor=none;fillColor=none;align=center;verticalAlign=middle;whiteSpace=wrap;rounded=0;fontSize=13;" vertex="1" parent="1">
          <mxGeometry x="860" y="120" width="60" height="30" as="geometry" />
        </mxCell>
        <mxCell id="gFLGMSEBJ4K6tD9c_Rj9-32" value="NOV" style="text;html=1;strokeColor=none;fillColor=none;align=center;verticalAlign=middle;whiteSpace=wrap;rounded=0;fontSize=13;" vertex="1" parent="1">
          <mxGeometry x="930" y="120" width="60" height="30" as="geometry" />
        </mxCell>
        <mxCell id="gFLGMSEBJ4K6tD9c_Rj9-33" value="DEC" style="text;html=1;strokeColor=none;fillColor=none;align=center;verticalAlign=middle;whiteSpace=wrap;rounded=0;fontSize=13;" vertex="1" parent="1">
          <mxGeometry x="1000" y="120" width="60" height="30" as="geometry" />
        </mxCell>
        <mxCell id="gFLGMSEBJ4K6tD9c_Rj9-34" value="Daycare" style="text;html=1;strokeColor=none;fillColor=none;align=center;verticalAlign=middle;whiteSpace=wrap;rounded=0;fontSize=13;" vertex="1" parent="1">
          <mxGeometry x="50" y="120" width="60" height="30" as="geometry" />
        </mxCell>
        <mxCell id="gFLGMSEBJ4K6tD9c_Rj9-35" value="Rating (1-5)" style="text;html=1;strokeColor=none;fillColor=none;align=center;verticalAlign=middle;whiteSpace=wrap;rounded=0;fontSize=13;" vertex="1" parent="1">
          <mxGeometry x="140" y="120" width="80" height="30" as="geometry" />
        </mxCell>
        <mxCell id="gFLGMSEBJ4K6tD9c_Rj9-36" value="&lt;font style=&quot;font-size: 14px;&quot;&gt;5&lt;br&gt;&lt;br&gt;3&lt;br&gt;&lt;br&gt;&lt;/font&gt;&lt;div style=&quot;font-size: 14px;&quot;&gt;&lt;font style=&quot;font-size: 14px;&quot;&gt;5&lt;/font&gt;&lt;/div&gt;&lt;div style=&quot;font-size: 14px;&quot;&gt;&lt;font style=&quot;font-size: 14px;&quot;&gt;.&lt;/font&gt;&lt;/div&gt;&lt;div style=&quot;font-size: 14px;&quot;&gt;&lt;font style=&quot;font-size: 14px;&quot;&gt;.&lt;/font&gt;&lt;/div&gt;&lt;div style=&quot;font-size: 14px;&quot;&gt;&lt;font style=&quot;font-size: 14px;&quot;&gt;.&lt;/font&gt;&lt;/div&gt;&lt;div style=&quot;font-size: 14px;&quot;&gt;&lt;font style=&quot;font-size: 14px;&quot;&gt;.&lt;/font&gt;&lt;/div&gt;&lt;div style=&quot;font-size: 14px;&quot;&gt;&lt;font style=&quot;font-size: 14px;&quot;&gt;.&lt;/font&gt;&lt;/div&gt;&lt;div style=&quot;font-size: 14px;&quot;&gt;&lt;font style=&quot;font-size: 14px;&quot;&gt;.&lt;/font&gt;&lt;/div&gt;&lt;div style=&quot;font-size: 14px;&quot;&gt;&lt;font style=&quot;font-size: 14px;&quot;&gt;.&lt;/font&gt;&lt;/div&gt;&lt;div style=&quot;font-size: 14px;&quot;&gt;&lt;font style=&quot;font-size: 14px;&quot;&gt;.&lt;/font&gt;&lt;/div&gt;&lt;div style=&quot;font-size: 14px;&quot;&gt;&lt;font style=&quot;font-size: 14px;&quot;&gt;.&lt;/font&gt;&lt;/div&gt;&lt;div style=&quot;font-size: 14px;&quot;&gt;&lt;font style=&quot;font-size: 14px;&quot;&gt;.&lt;/font&gt;&lt;/div&gt;&lt;div style=&quot;font-size: 14px;&quot;&gt;&lt;font style=&quot;font-size: 14px;&quot;&gt;.&lt;/font&gt;&lt;/div&gt;&lt;div style=&quot;font-size: 14px;&quot;&gt;&lt;font style=&quot;font-size: 14px;&quot;&gt;.&lt;/font&gt;&lt;/div&gt;&lt;div style=&quot;font-size: 14px;&quot;&gt;&lt;font style=&quot;font-size: 14px;&quot;&gt;.&lt;/font&gt;&lt;/div&gt;&lt;div style=&quot;font-size: 14px;&quot;&gt;&lt;font style=&quot;font-size: 14px;&quot;&gt;.&lt;/font&gt;&lt;/div&gt;&lt;div style=&quot;font-size: 14px;&quot;&gt;&lt;font style=&quot;font-size: 14px;&quot;&gt;.&lt;/font&gt;&lt;/div&gt;&lt;div style=&quot;font-size: 14px;&quot;&gt;&lt;font style=&quot;font-size: 14px;&quot;&gt;.&lt;/font&gt;&lt;/div&gt;&lt;div style=&quot;font-size: 14px;&quot;&gt;&lt;font style=&quot;font-size: 14px;&quot;&gt;.&lt;/font&gt;&lt;/div&gt;&lt;div style=&quot;font-size: 14px;&quot;&gt;&lt;font style=&quot;font-size: 14px;&quot;&gt;.&lt;/font&gt;&lt;/div&gt;&lt;div style=&quot;font-size: 14px;&quot;&gt;&lt;font style=&quot;font-size: 14px;&quot;&gt;.&lt;/font&gt;&lt;/div&gt;&lt;div style=&quot;font-size: 14px;&quot;&gt;&lt;font style=&quot;font-size: 14px;&quot;&gt;.&lt;/font&gt;&lt;/div&gt;&lt;div style=&quot;font-size: 14px;&quot;&gt;&lt;font style=&quot;font-size: 14px;&quot;&gt;.&lt;/font&gt;&lt;/div&gt;&lt;div style=&quot;font-size: 14px;&quot;&gt;&lt;font style=&quot;font-size: 14px;&quot;&gt;.&lt;/font&gt;&lt;/div&gt;&lt;div style=&quot;font-size: 14px;&quot;&gt;&lt;font style=&quot;font-size: 14px;&quot;&gt;.&lt;/font&gt;&lt;/div&gt;" style="text;html=1;strokeColor=none;fillColor=none;align=center;verticalAlign=middle;whiteSpace=wrap;rounded=0;fontSize=13;" vertex="1" parent="1">
          <mxGeometry x="150" y="160" width="60" height="490" as="geometry" />
        </mxCell>
        <mxCell id="gFLGMSEBJ4K6tD9c_Rj9-38" value="spots left" style="text;html=1;strokeColor=none;fillColor=none;align=center;verticalAlign=middle;whiteSpace=wrap;rounded=0;fontSize=14;" vertex="1" parent="1">
          <mxGeometry x="625" y="310" width="60" height="30" as="geometry" />
        </mxCell>
      </root>
    </mxGraphModel>
  </diagram>
</mxfile>
